<svg xmlns="http://www.w3.org/2000/svg" viewBox="0 0 48 48"><defs><style>.cls-1{fill:#a87e6b;}.cls-2{fill:#be927c;}.cls-3{fill:#425b72;}.cls-4{fill:#f6ccaf;}.cls-5{fill:#ffdec7;}.cls-6{fill:#dad7e5;}.cls-7{fill:#f29b75;}.cls-8{fill:#edb996;}.cls-9{fill:#a07765;}.cls-10{fill:#df8761;}</style></defs><title>Air Delivery</title><g id="Air_Delivery" data-name="Air Delivery"><rect class="cls-1" x="16" y="31" width="20" height="16"/><path class="cls-2" d="M36,31V45H28a2,2,0,0,1-2-2V31Z"/><path class="cls-3" d="M33,17a10.49,10.49,0,0,0-1,2.53C26.61,31.07,26.9,31,26,31s-.61.07-6-11.42a9.74,9.74,0,0,0-1-2.52,1,1,0,0,1,1.08-1c.78,0,.42-.28,5.91,11.9C31.46,15.77,31.08,16,32,16A1,1,0,0,1,33,17Z"/><path class="cls-3" d="M45,19.22c-.14.11,1.15-.71-18.48,11.65a1,1,0,0,1-1,0C1.35,15.66,8.12,20.08,7,19.22A19.8,19.8,0,0,1,7.23,17c.24,0-1.13-.77,18.77,11.81C45.92,16.25,44.58,17.05,44.77,17A19.8,19.8,0,0,1,45,19.22Z"/><polygon class="cls-4" points="29 31 29 37 26 35 23 37 23 31 29 31"/><path class="cls-5" d="M28.9,36.93,26,35V32.81A6,6,0,0,1,28.9,36.93Z"/><path class="cls-6" d="M13,34H8a1,1,0,0,1,0-2h5A1,1,0,0,1,13,34Z"/><path class="cls-6" d="M11,39H7a1,1,0,0,1,0-2h4A1,1,0,0,1,11,39Z"/><path class="cls-6" d="M11,45H4a1,1,0,0,1,0-2h7A1,1,0,0,1,11,45Z"/><path class="cls-6" d="M5,34c.32,0-1,.12-1-1a1,1,0,1,1,1,1Z"/><path class="cls-7" d="M19.57,18.17A6.5,6.5,0,0,0,7,20a16.77,16.77,0,0,1,.21-3A19,19,0,0,1,25.51,1,22.86,22.86,0,0,0,19.57,18.17Z"/><path class="cls-5" d="M32.5,16.5c0,2.74-.33,1.54-.48,3.5h0a6,6,0,0,0-12,0h0c-.16-2.05-.48-.77-.48-3.5A22.92,22.92,0,0,1,25.51,1c.22,0,.76,0,1,0A23,23,0,0,1,32.5,16.5Z"/><path class="cls-7" d="M45,20h0a6.5,6.5,0,0,0-12-2.94c-.85,1.35-.49,1.8-.49-.56A23,23,0,0,0,26.49,1,19,19,0,0,1,45,20Z"/><path class="cls-4" d="M29,31c0,6.74,0,6-.1,5.93A6,6,0,0,0,26,32.81V31Z"/><path class="cls-8" d="M26,31v1.81A5.88,5.88,0,0,0,23,32V31Z"/><path class="cls-9" d="M16,31h7v1a6,6,0,0,0-6,6,6.92,6.92,0,0,0-1-2.94C16,34.64,16,36.56,16,31Z"/><path class="cls-1" d="M36,31v1a6.5,6.5,0,0,0-6.87,5.22c-.19.79,0,.76-.13.76a6.36,6.36,0,0,0-.1-1.07c.14.1.1.74.1-5.93Z"/><path class="cls-10" d="M19.5,16.5c0,2.37.35,1.9-.49.56a6.49,6.49,0,0,0-11.19.29A7.25,7.25,0,0,0,7,20,18.9,18.9,0,0,1,13,6.14,19.83,19.83,0,0,1,23.17,4,22.91,22.91,0,0,0,19.5,16.5Z"/><path class="cls-4" d="M32.5,16.5c0,2.74-.33,1.54-.48,3.5h0a6,6,0,0,0-12,0h0c-.16-2.05-.48-.77-.48-3.5A23,23,0,0,1,23.17,4a19.59,19.59,0,0,1,6.55,1.51A22.85,22.85,0,0,1,32.5,16.5Z"/><path class="cls-10" d="M39.34,14.05a6.49,6.49,0,0,0-6.35,3c-.85,1.35-.49,1.8-.49-.56A22.87,22.87,0,0,0,29.72,5.55,20,20,0,0,1,39.34,14.05Z"/><path class="cls-6" d="M23,44H20a1,1,0,0,1,0-2h3A1,1,0,0,1,23,44Z"/></g></svg>